<mxfile host="app.diagrams.net" agent="Mozilla/5.0 (Macintosh; Intel Mac OS X 10_15_7) AppleWebKit/605.1.15 (KHTML, like Gecko) Version/26.0 Safari/605.1.15" version="28.2.5">
  <diagram name="Page-1" id="KWWy7OduNlZMBDOwQbal">
    <mxGraphModel dx="1254" dy="944" grid="1" gridSize="10" guides="1" tooltips="1" connect="1" arrows="1" fold="1" page="1" pageScale="1" pageWidth="827" pageHeight="1169" math="0" shadow="0">
      <root>
        <mxCell id="0" />
        <mxCell id="1" parent="0" />
        <mxCell id="5mjBQ2ej6JxekV1bUW2Y-70" value="" style="whiteSpace=wrap;html=1;fillColor=none;" vertex="1" parent="1">
          <mxGeometry x="550" y="540" width="380" height="210" as="geometry" />
        </mxCell>
        <mxCell id="5mjBQ2ej6JxekV1bUW2Y-62" value="" style="rounded=0;whiteSpace=wrap;html=1;fillColor=none;" vertex="1" parent="1">
          <mxGeometry x="270" y="890" width="850" height="360" as="geometry" />
        </mxCell>
        <mxCell id="5mjBQ2ej6JxekV1bUW2Y-15" style="edgeStyle=orthogonalEdgeStyle;rounded=0;orthogonalLoop=1;jettySize=auto;html=1;entryX=0;entryY=0.5;entryDx=0;entryDy=0;" edge="1" parent="1" source="5mjBQ2ej6JxekV1bUW2Y-1" target="5mjBQ2ej6JxekV1bUW2Y-4">
          <mxGeometry relative="1" as="geometry" />
        </mxCell>
        <mxCell id="5mjBQ2ej6JxekV1bUW2Y-1" value="Home Screen for&amp;nbsp;&lt;div&gt;Scoring/Team Data/Event Data&lt;/div&gt;" style="rounded=0;whiteSpace=wrap;html=1;" vertex="1" parent="1">
          <mxGeometry x="30" y="60" width="185" height="100" as="geometry" />
        </mxCell>
        <mxCell id="5mjBQ2ej6JxekV1bUW2Y-3" value="Match Score Journey" style="text;strokeColor=none;fillColor=none;html=1;fontSize=24;fontStyle=1;verticalAlign=middle;align=center;" vertex="1" parent="1">
          <mxGeometry y="20" width="280" height="40" as="geometry" />
        </mxCell>
        <mxCell id="5mjBQ2ej6JxekV1bUW2Y-19" style="edgeStyle=orthogonalEdgeStyle;rounded=0;orthogonalLoop=1;jettySize=auto;html=1;entryX=0;entryY=0.5;entryDx=0;entryDy=0;" edge="1" parent="1" source="5mjBQ2ej6JxekV1bUW2Y-4" target="5mjBQ2ej6JxekV1bUW2Y-18">
          <mxGeometry relative="1" as="geometry" />
        </mxCell>
        <mxCell id="5mjBQ2ej6JxekV1bUW2Y-4" value="Score a&amp;nbsp;&lt;div&gt;Match&lt;/div&gt;" style="rhombus;whiteSpace=wrap;html=1;rounded=0;" vertex="1" parent="1">
          <mxGeometry x="160" y="200" width="80" height="80" as="geometry" />
        </mxCell>
        <mxCell id="5mjBQ2ej6JxekV1bUW2Y-30" style="edgeStyle=orthogonalEdgeStyle;rounded=0;orthogonalLoop=1;jettySize=auto;html=1;" edge="1" parent="1" source="5mjBQ2ej6JxekV1bUW2Y-9" target="5mjBQ2ej6JxekV1bUW2Y-29">
          <mxGeometry relative="1" as="geometry" />
        </mxCell>
        <mxCell id="5mjBQ2ej6JxekV1bUW2Y-9" value="See Team&lt;div&gt;Data&lt;/div&gt;" style="rhombus;whiteSpace=wrap;html=1;" vertex="1" parent="1">
          <mxGeometry x="160" y="610" width="80" height="80" as="geometry" />
        </mxCell>
        <mxCell id="5mjBQ2ej6JxekV1bUW2Y-35" style="edgeStyle=orthogonalEdgeStyle;rounded=0;orthogonalLoop=1;jettySize=auto;html=1;entryX=0;entryY=0.5;entryDx=0;entryDy=0;" edge="1" parent="1" source="5mjBQ2ej6JxekV1bUW2Y-10" target="5mjBQ2ej6JxekV1bUW2Y-31">
          <mxGeometry relative="1" as="geometry" />
        </mxCell>
        <mxCell id="5mjBQ2ej6JxekV1bUW2Y-10" value="See Event&lt;div&gt;Data&lt;/div&gt;" style="rhombus;whiteSpace=wrap;html=1;" vertex="1" parent="1">
          <mxGeometry x="160" y="970" width="80" height="80" as="geometry" />
        </mxCell>
        <mxCell id="5mjBQ2ej6JxekV1bUW2Y-16" style="edgeStyle=orthogonalEdgeStyle;rounded=0;orthogonalLoop=1;jettySize=auto;html=1;entryX=0;entryY=0.5;entryDx=0;entryDy=0;" edge="1" parent="1" source="5mjBQ2ej6JxekV1bUW2Y-11" target="5mjBQ2ej6JxekV1bUW2Y-9">
          <mxGeometry relative="1" as="geometry" />
        </mxCell>
        <mxCell id="5mjBQ2ej6JxekV1bUW2Y-11" value="Home Screen for&amp;nbsp;&lt;div&gt;Scoring/Team Data/Event Data&lt;/div&gt;" style="rounded=0;whiteSpace=wrap;html=1;" vertex="1" parent="1">
          <mxGeometry x="30" y="460" width="185" height="100" as="geometry" />
        </mxCell>
        <mxCell id="5mjBQ2ej6JxekV1bUW2Y-12" value="Team Data Journey" style="text;strokeColor=none;fillColor=none;html=1;fontSize=24;fontStyle=1;verticalAlign=middle;align=center;" vertex="1" parent="1">
          <mxGeometry y="420" width="280" height="40" as="geometry" />
        </mxCell>
        <mxCell id="5mjBQ2ej6JxekV1bUW2Y-17" style="edgeStyle=orthogonalEdgeStyle;rounded=0;orthogonalLoop=1;jettySize=auto;html=1;entryX=0;entryY=0.5;entryDx=0;entryDy=0;" edge="1" parent="1" source="5mjBQ2ej6JxekV1bUW2Y-13" target="5mjBQ2ej6JxekV1bUW2Y-10">
          <mxGeometry relative="1" as="geometry" />
        </mxCell>
        <mxCell id="5mjBQ2ej6JxekV1bUW2Y-13" value="Home Screen for&amp;nbsp;&lt;div&gt;Scoring/Team Data/Event Data&lt;/div&gt;" style="rounded=0;whiteSpace=wrap;html=1;" vertex="1" parent="1">
          <mxGeometry x="30" y="820" width="185" height="100" as="geometry" />
        </mxCell>
        <mxCell id="5mjBQ2ej6JxekV1bUW2Y-14" value="Event Data Journey" style="text;strokeColor=none;fillColor=none;html=1;fontSize=24;fontStyle=1;verticalAlign=middle;align=center;" vertex="1" parent="1">
          <mxGeometry y="780" width="280" height="40" as="geometry" />
        </mxCell>
        <mxCell id="5mjBQ2ej6JxekV1bUW2Y-23" style="edgeStyle=orthogonalEdgeStyle;rounded=0;orthogonalLoop=1;jettySize=auto;html=1;entryX=0;entryY=0.5;entryDx=0;entryDy=0;" edge="1" parent="1" source="5mjBQ2ej6JxekV1bUW2Y-18" target="5mjBQ2ej6JxekV1bUW2Y-21">
          <mxGeometry relative="1" as="geometry" />
        </mxCell>
        <mxCell id="5mjBQ2ej6JxekV1bUW2Y-24" style="edgeStyle=orthogonalEdgeStyle;rounded=0;orthogonalLoop=1;jettySize=auto;html=1;entryX=0;entryY=0.5;entryDx=0;entryDy=0;" edge="1" parent="1" source="5mjBQ2ej6JxekV1bUW2Y-18" target="5mjBQ2ej6JxekV1bUW2Y-20">
          <mxGeometry relative="1" as="geometry" />
        </mxCell>
        <mxCell id="5mjBQ2ej6JxekV1bUW2Y-18" value="Match Score Selection Screen" style="rounded=0;whiteSpace=wrap;html=1;" vertex="1" parent="1">
          <mxGeometry x="280" y="210" width="120" height="60" as="geometry" />
        </mxCell>
        <mxCell id="5mjBQ2ej6JxekV1bUW2Y-28" style="edgeStyle=orthogonalEdgeStyle;rounded=0;orthogonalLoop=1;jettySize=auto;html=1;" edge="1" parent="1" source="5mjBQ2ej6JxekV1bUW2Y-20" target="5mjBQ2ej6JxekV1bUW2Y-25">
          <mxGeometry relative="1" as="geometry" />
        </mxCell>
        <mxCell id="5mjBQ2ej6JxekV1bUW2Y-20" value="Timed&amp;nbsp;&lt;div&gt;Match&lt;/div&gt;" style="rhombus;whiteSpace=wrap;html=1;" vertex="1" parent="1">
          <mxGeometry x="470" y="120" width="80" height="80" as="geometry" />
        </mxCell>
        <mxCell id="5mjBQ2ej6JxekV1bUW2Y-27" style="edgeStyle=orthogonalEdgeStyle;rounded=0;orthogonalLoop=1;jettySize=auto;html=1;" edge="1" parent="1" source="5mjBQ2ej6JxekV1bUW2Y-21" target="5mjBQ2ej6JxekV1bUW2Y-26">
          <mxGeometry relative="1" as="geometry" />
        </mxCell>
        <mxCell id="5mjBQ2ej6JxekV1bUW2Y-21" value="Untimed&amp;nbsp;&lt;div&gt;Match&lt;/div&gt;" style="rhombus;whiteSpace=wrap;html=1;" vertex="1" parent="1">
          <mxGeometry x="470" y="280" width="80" height="80" as="geometry" />
        </mxCell>
        <mxCell id="5mjBQ2ej6JxekV1bUW2Y-76" style="edgeStyle=orthogonalEdgeStyle;rounded=0;orthogonalLoop=1;jettySize=auto;html=1;entryX=0;entryY=0.5;entryDx=0;entryDy=0;" edge="1" parent="1" source="5mjBQ2ej6JxekV1bUW2Y-25" target="5mjBQ2ej6JxekV1bUW2Y-72">
          <mxGeometry relative="1" as="geometry" />
        </mxCell>
        <mxCell id="5mjBQ2ej6JxekV1bUW2Y-25" value="Timed Match&amp;nbsp;&lt;div&gt;Scoring (each phase goes into the next on a timer)&lt;/div&gt;" style="rounded=0;whiteSpace=wrap;html=1;" vertex="1" parent="1">
          <mxGeometry x="620" y="130" width="120" height="60" as="geometry" />
        </mxCell>
        <mxCell id="5mjBQ2ej6JxekV1bUW2Y-77" style="edgeStyle=orthogonalEdgeStyle;rounded=0;orthogonalLoop=1;jettySize=auto;html=1;entryX=0;entryY=0.5;entryDx=0;entryDy=0;" edge="1" parent="1" source="5mjBQ2ej6JxekV1bUW2Y-26" target="5mjBQ2ej6JxekV1bUW2Y-72">
          <mxGeometry relative="1" as="geometry" />
        </mxCell>
        <mxCell id="5mjBQ2ej6JxekV1bUW2Y-26" value="Custom&amp;nbsp;&lt;div&gt;Scoring (score each phase whenever w/ no timer)&lt;/div&gt;" style="rounded=0;whiteSpace=wrap;html=1;" vertex="1" parent="1">
          <mxGeometry x="620" y="290" width="120" height="60" as="geometry" />
        </mxCell>
        <mxCell id="5mjBQ2ej6JxekV1bUW2Y-67" value="" style="edgeStyle=orthogonalEdgeStyle;rounded=0;orthogonalLoop=1;jettySize=auto;html=1;" edge="1" parent="1" source="5mjBQ2ej6JxekV1bUW2Y-29" target="5mjBQ2ej6JxekV1bUW2Y-66">
          <mxGeometry relative="1" as="geometry" />
        </mxCell>
        <mxCell id="5mjBQ2ej6JxekV1bUW2Y-29" value="&lt;div style=&quot;text-align: center;&quot;&gt;Team Screen&amp;nbsp;&lt;/div&gt;&lt;div&gt;&lt;ul&gt;&lt;li&gt;own team info&lt;br&gt;&lt;/li&gt;&lt;li&gt;breakdown of match data recorded using the app&lt;br&gt;&lt;/li&gt;&lt;li&gt;analysis of strengths and suggestions for what strengths to look for in other teams&lt;/li&gt;&lt;/ul&gt;&lt;/div&gt;" style="rounded=0;whiteSpace=wrap;html=1;align=left;" vertex="1" parent="1">
          <mxGeometry x="300" y="580" width="210" height="140" as="geometry" />
        </mxCell>
        <mxCell id="5mjBQ2ej6JxekV1bUW2Y-40" style="edgeStyle=orthogonalEdgeStyle;rounded=0;orthogonalLoop=1;jettySize=auto;html=1;" edge="1" parent="1" source="5mjBQ2ej6JxekV1bUW2Y-31" target="5mjBQ2ej6JxekV1bUW2Y-39">
          <mxGeometry relative="1" as="geometry" />
        </mxCell>
        <mxCell id="5mjBQ2ej6JxekV1bUW2Y-31" value="Event Data Screen" style="rounded=0;whiteSpace=wrap;html=1;" vertex="1" parent="1">
          <mxGeometry x="293" y="980" width="120" height="60" as="geometry" />
        </mxCell>
        <mxCell id="5mjBQ2ej6JxekV1bUW2Y-42" style="edgeStyle=orthogonalEdgeStyle;rounded=0;orthogonalLoop=1;jettySize=auto;html=1;" edge="1" parent="1" source="5mjBQ2ej6JxekV1bUW2Y-39" target="5mjBQ2ej6JxekV1bUW2Y-41">
          <mxGeometry relative="1" as="geometry" />
        </mxCell>
        <mxCell id="5mjBQ2ej6JxekV1bUW2Y-39" value="Select&lt;div&gt;Event&lt;/div&gt;" style="rhombus;whiteSpace=wrap;html=1;" vertex="1" parent="1">
          <mxGeometry x="470" y="970" width="80" height="80" as="geometry" />
        </mxCell>
        <mxCell id="5mjBQ2ej6JxekV1bUW2Y-45" value="" style="edgeStyle=orthogonalEdgeStyle;rounded=0;orthogonalLoop=1;jettySize=auto;html=1;" edge="1" parent="1" source="5mjBQ2ej6JxekV1bUW2Y-41" target="5mjBQ2ej6JxekV1bUW2Y-44">
          <mxGeometry relative="1" as="geometry" />
        </mxCell>
        <mxCell id="5mjBQ2ej6JxekV1bUW2Y-57" value="" style="edgeStyle=orthogonalEdgeStyle;rounded=0;orthogonalLoop=1;jettySize=auto;html=1;" edge="1" parent="1" source="5mjBQ2ej6JxekV1bUW2Y-41" target="5mjBQ2ej6JxekV1bUW2Y-56">
          <mxGeometry relative="1" as="geometry" />
        </mxCell>
        <mxCell id="5mjBQ2ej6JxekV1bUW2Y-41" value="Table View of teams&lt;div&gt;(team, # matches, avg score, rating)&lt;/div&gt;" style="rounded=0;whiteSpace=wrap;html=1;" vertex="1" parent="1">
          <mxGeometry x="600" y="980" width="120" height="60" as="geometry" />
        </mxCell>
        <mxCell id="5mjBQ2ej6JxekV1bUW2Y-47" value="" style="edgeStyle=orthogonalEdgeStyle;rounded=0;orthogonalLoop=1;jettySize=auto;html=1;" edge="1" parent="1" source="5mjBQ2ej6JxekV1bUW2Y-44" target="5mjBQ2ej6JxekV1bUW2Y-46">
          <mxGeometry relative="1" as="geometry" />
        </mxCell>
        <mxCell id="5mjBQ2ej6JxekV1bUW2Y-44" value="Select&lt;div&gt;Team&lt;/div&gt;" style="rhombus;whiteSpace=wrap;html=1;rounded=0;" vertex="1" parent="1">
          <mxGeometry x="780" y="970" width="80" height="80" as="geometry" />
        </mxCell>
        <mxCell id="5mjBQ2ej6JxekV1bUW2Y-54" value="" style="edgeStyle=orthogonalEdgeStyle;rounded=0;orthogonalLoop=1;jettySize=auto;html=1;" edge="1" parent="1" source="5mjBQ2ej6JxekV1bUW2Y-46" target="5mjBQ2ej6JxekV1bUW2Y-53">
          <mxGeometry relative="1" as="geometry" />
        </mxCell>
        <mxCell id="5mjBQ2ej6JxekV1bUW2Y-46" value="Detail breakdown&lt;div&gt;of team&lt;/div&gt;&lt;div&gt;(analysis of how well team would pair with self)&lt;/div&gt;" style="whiteSpace=wrap;html=1;rounded=0;" vertex="1" parent="1">
          <mxGeometry x="920" y="960" width="120" height="100" as="geometry" />
        </mxCell>
        <mxCell id="5mjBQ2ej6JxekV1bUW2Y-53" value="Back" style="rhombus;whiteSpace=wrap;html=1;rounded=0;" vertex="1" parent="1">
          <mxGeometry x="940" y="1110" width="80" height="80" as="geometry" />
        </mxCell>
        <mxCell id="5mjBQ2ej6JxekV1bUW2Y-56" value="Back" style="rhombus;whiteSpace=wrap;html=1;rounded=0;" vertex="1" parent="1">
          <mxGeometry x="620" y="1110" width="80" height="80" as="geometry" />
        </mxCell>
        <mxCell id="5mjBQ2ej6JxekV1bUW2Y-60" value="" style="endArrow=classic;html=1;rounded=0;exitX=0;exitY=0.5;exitDx=0;exitDy=0;entryX=0.75;entryY=1;entryDx=0;entryDy=0;" edge="1" parent="1" source="5mjBQ2ej6JxekV1bUW2Y-53" target="5mjBQ2ej6JxekV1bUW2Y-41">
          <mxGeometry width="50" height="50" relative="1" as="geometry">
            <mxPoint x="580" y="890" as="sourcePoint" />
            <mxPoint x="630" y="840" as="targetPoint" />
          </mxGeometry>
        </mxCell>
        <mxCell id="5mjBQ2ej6JxekV1bUW2Y-61" value="" style="endArrow=classic;html=1;rounded=0;exitX=0;exitY=0.5;exitDx=0;exitDy=0;entryX=0.75;entryY=1;entryDx=0;entryDy=0;" edge="1" parent="1" source="5mjBQ2ej6JxekV1bUW2Y-56" target="5mjBQ2ej6JxekV1bUW2Y-31">
          <mxGeometry width="50" height="50" relative="1" as="geometry">
            <mxPoint x="580" y="890" as="sourcePoint" />
            <mxPoint x="630" y="840" as="targetPoint" />
          </mxGeometry>
        </mxCell>
        <mxCell id="5mjBQ2ej6JxekV1bUW2Y-63" value="FIRST Event API&amp;nbsp;" style="text;html=1;align=center;verticalAlign=middle;whiteSpace=wrap;rounded=0;" vertex="1" parent="1">
          <mxGeometry x="263" y="891" width="150" height="30" as="geometry" />
        </mxCell>
        <mxCell id="5mjBQ2ej6JxekV1bUW2Y-69" value="" style="edgeStyle=orthogonalEdgeStyle;rounded=0;orthogonalLoop=1;jettySize=auto;html=1;" edge="1" parent="1" source="5mjBQ2ej6JxekV1bUW2Y-66" target="5mjBQ2ej6JxekV1bUW2Y-68">
          <mxGeometry relative="1" as="geometry" />
        </mxCell>
        <mxCell id="5mjBQ2ej6JxekV1bUW2Y-66" value="Query API" style="rhombus;whiteSpace=wrap;html=1;align=center;rounded=0;" vertex="1" parent="1">
          <mxGeometry x="580" y="610" width="80" height="80" as="geometry" />
        </mxCell>
        <mxCell id="5mjBQ2ej6JxekV1bUW2Y-68" value="Same info but using match data from most recent event (requires at least one event to have occured that season)" style="whiteSpace=wrap;html=1;rounded=0;" vertex="1" parent="1">
          <mxGeometry x="735" y="600" width="135" height="100" as="geometry" />
        </mxCell>
        <mxCell id="5mjBQ2ej6JxekV1bUW2Y-71" value="FIRST Event API&amp;nbsp;" style="text;html=1;align=center;verticalAlign=middle;whiteSpace=wrap;rounded=0;" vertex="1" parent="1">
          <mxGeometry x="550" y="540" width="150" height="30" as="geometry" />
        </mxCell>
        <mxCell id="5mjBQ2ej6JxekV1bUW2Y-78" style="edgeStyle=orthogonalEdgeStyle;rounded=0;orthogonalLoop=1;jettySize=auto;html=1;entryX=0.5;entryY=1;entryDx=0;entryDy=0;" edge="1" parent="1" source="5mjBQ2ej6JxekV1bUW2Y-72" target="5mjBQ2ej6JxekV1bUW2Y-18">
          <mxGeometry relative="1" as="geometry">
            <Array as="points">
              <mxPoint x="858" y="390" />
              <mxPoint x="340" y="390" />
            </Array>
          </mxGeometry>
        </mxCell>
        <mxCell id="5mjBQ2ej6JxekV1bUW2Y-72" value="Save/Cancel" style="rhombus;whiteSpace=wrap;html=1;rounded=0;" vertex="1" parent="1">
          <mxGeometry x="818" y="202" width="80" height="80" as="geometry" />
        </mxCell>
      </root>
    </mxGraphModel>
  </diagram>
</mxfile>
